<svg xmlns="http://www.w3.org/2000/svg" viewBox="0 0 454.07 142.66"><defs><style>.cls-1{fill:#fff;}.cls-2{fill:#fff;}.cls-3{fill:#fff;}</style></defs><g id="Layer_2" data-name="Layer 2"><g id="Layer_1-2" data-name="Layer 1"><path class="cls-1" d="M77.65,71c0-16.65,10.43-26.54,23.31-26.54a20.24,20.24,0,0,1,14.65,6.44l-4.82,5.82c-2.62-2.61-5.67-4.42-9.65-4.42-8.27,0-14.22,7-14.22,18.42,0,11.6,5.48,18.63,14,18.63,4.52,0,8-2.08,10.86-5.22l4.82,5.66a20.27,20.27,0,0,1-16,7.4C87.8,97.17,77.65,87.81,77.65,71Z"/><path class="cls-1" d="M116.15,77.17c0-12.41,8.62-20.07,17.61-20.07,10.33,0,15.77,7.47,15.77,18.14a23.51,23.51,0,0,1-.39,4.36H124.89c.75,6.78,5.11,10.63,11.26,10.63A16.31,16.31,0,0,0,145,87.47l3,5.56A23.69,23.69,0,0,1,135,97.17C124.43,97.17,116.15,89.77,116.15,77.17Zm25.64-3.67c0-5.88-2.62-9.46-7.84-9.46-4.45,0-8.37,3.33-9.15,9.46Z"/><path class="cls-1" d="M152.42,86.41V41.3h9V86.87c0,2.21,1,3,1.93,3a5.39,5.39,0,0,0,1.4-.15l1.12,6.68a12.45,12.45,0,0,1-4.73.78C154.76,97.17,152.42,93.07,152.42,86.41Z"/><path class="cls-1" d="M165.3,77.17c0-12.41,8.62-20.07,17.61-20.07,10.33,0,15.77,7.47,15.77,18.14a22.67,22.67,0,0,1-.39,4.36H174c.75,6.78,5.11,10.63,11.27,10.63a16.3,16.3,0,0,0,8.86-2.76L197.22,93a23.69,23.69,0,0,1-13.1,4.14C173.58,97.17,165.3,89.77,165.3,77.17Zm25.64-3.67c0-5.88-2.62-9.46-7.84-9.46-4.45,0-8.37,3.33-9.15,9.46Z"/><path class="cls-1" d="M209.66,92.23h-.25l-.77,4h-7.07V41.3h9V55.52l-.24,6.34c3.18-2.8,7.1-4.76,11-4.76,9.55,0,15.08,7.66,15.08,19.4,0,13.11-7.81,20.67-16.31,20.67C216.6,97.17,212.87,95.4,209.66,92.23Zm17.52-15.59c0-7.62-2.49-12.13-8.31-12.13-2.77,0-5.44,1.4-8.34,4.29V86.6a11.82,11.82,0,0,0,7.66,3.17C223.29,89.77,227.18,85.29,227.18,76.64Z"/><path class="cls-1" d="M238.13,58h7.34l.68,6.81h.25c2.72-5,6.77-7.75,10.86-7.75a9.7,9.7,0,0,1,4.32.78L260,65.66a12.73,12.73,0,0,0-3.92-.62c-3.05,0-6.72,2.08-9,7.9v23.3h-9Z"/><path class="cls-1" d="M263.54,46.28c0-3,2.37-5.07,5.54-5.07s5.54,2,5.54,5.07-2.37,5.07-5.54,5.07S263.54,49.23,263.54,46.28Zm1,11.76h9v38.2h-9Z"/><path class="cls-1" d="M282.16,83.36V65.16h-5.44V58.44l5.91-.4,1.05-10.43h7.44V58h9.74v7.12h-9.74V83.34c0,4.5,1.74,6.71,5.41,6.71a12.15,12.15,0,0,0,4-.87L302,95.77a24.58,24.58,0,0,1-7.81,1.4C285.43,97.17,282.16,91.6,282.16,83.36Z"/><path class="cls-1" d="M303.87,111.14l1.65-6.94a10.49,10.49,0,0,0,2.74.53c4,0,6.35-2.74,7.62-6.56l.72-2.4L301.57,58h9.09l6.59,18.72c1.15,3.39,2.24,7.16,3.36,10.8h.31c1-3.55,1.93-7.31,2.93-10.8L329.54,58h8.65L324.37,98c-3.17,8.6-7.18,13.94-15.52,13.94A14.86,14.86,0,0,1,303.87,111.14Z"/><path class="cls-2" d="M76.09,38.13c-.71.68,0,0,0,0C75,38.14,62.06,13,60.25,13.3s-3.7,45.3-3.87,46.25c-2.46.58-43.83,8.73-43.81,10.5S52.74,89.66,52.74,89.66s-1.57,10-2,13c-.08.62-5,31.15-5,31.15L81.17,99.29s40.71,18.65,40.52,19.28S82.12,105.8,82.12,105.8,43,143.44,41.42,142.65s4.27-50.42,4.27-50.42S0,71.77,0,69.32,50.05,56.4,51.08,54,55.72,0,57.87,0,76.79,37.46,76.09,38.13Z"/><path class="cls-3" d="M347.66,84.08c1.49,0,2.23.6,2.23,1.82q0,1.36-2.07,2.07-3.56,1.29-3.56,4.6a4.81,4.81,0,0,0,2.07,4.14A7.71,7.71,0,0,0,350.85,98a15.18,15.18,0,0,0,9.57-3.19A6.3,6.3,0,0,0,363,89.63a7.72,7.72,0,0,0-.75-3.44,36.31,36.31,0,0,0-2.4-4c-1.66-2.49-3-4.75-4.18-6.8a13.45,13.45,0,0,1-1.91-6.67q0-7.74,7.67-14.5a36.25,36.25,0,0,1,8.95-5.72,19.36,19.36,0,0,1,7.83-1.78A6.69,6.69,0,0,1,382.34,48a5,5,0,0,1,2.07,4.19q0,4.14-4.47,8.95a35.43,35.43,0,0,1-9.86,7.38,10.8,10.8,0,0,1-4.27,1.4,2.29,2.29,0,0,1-1.7-.78,1.74,1.74,0,0,1-.5-1.2c0-1,.91-1.85,2.74-2.49a28.65,28.65,0,0,0,8.86-5c3.32-2.77,5-5.18,5-7.26a2.29,2.29,0,0,0-1-1.94,3,3,0,0,0-1.86-.58,16.7,16.7,0,0,0-7.17,2.19A24.55,24.55,0,0,0,361,60.46a13.46,13.46,0,0,0-2.9,7.83A12.4,12.4,0,0,0,359.67,74Q361,76.36,363,79.35t3.23,5.31a11.69,11.69,0,0,1,1.53,5.42q0,4.89-5.59,8.66a19,19,0,0,1-10.78,3.15q-5.93,0-9.28-3.27a7.81,7.81,0,0,1-2.52-5.72,8.3,8.3,0,0,1,2.4-6.05,9.37,9.37,0,0,1,3.44-2.24A6.65,6.65,0,0,1,347.66,84.08Z"/><path class="cls-3" d="M382.42,83.12a42.42,42.42,0,0,1,6.14-5.34Q392.49,75,394.19,75a2.1,2.1,0,0,1,1.37.58,2,2,0,0,1,.75,1.54c0,.74-.6,1.9-1.79,3.48a50.33,50.33,0,0,0-5.22,8.28,13,13,0,0,0-1.57,4.4,1,1,0,0,0,1.08,1.12q2.24,0,7.54-8c.72-1.08,1.36-1.62,1.94-1.62s.88.33.88,1c0,1.08-1.05,3.13-3.15,6.17a24.16,24.16,0,0,1-5.72,6.09,6.93,6.93,0,0,1-3.81,1.45A2.67,2.67,0,0,1,383.92,98a4.38,4.38,0,0,1-.5-2.11A17.8,17.8,0,0,1,386,87.52c.41-.75,1.66-2.88,3.73-6.39q-8.46,4.28-14.3,18.44c-.36,1.08-.91,1.62-1.66,1.62a1.66,1.66,0,0,1-1.28-.54,2.1,2.1,0,0,1-.5-1.41c0-.91.89-3.49,2.65-7.75q4.93-11.85,9.2-20t9.49-17.2a17.28,17.28,0,0,1,1.95-2.9,2.05,2.05,0,0,1,1.49-.75,1.57,1.57,0,0,1,1.29.79,2.28,2.28,0,0,1,.41,1.33,6.16,6.16,0,0,1-1.32,3.1Q392.7,62.74,388.27,71A97.83,97.83,0,0,0,382.42,83.12Z"/><path class="cls-3" d="M409.73,75.25a1.45,1.45,0,0,1,1.16.54,1.54,1.54,0,0,1,.33.91,5.58,5.58,0,0,1-1.2,2.49,76.33,76.33,0,0,0-6.13,11,92.83,92.83,0,0,0-3.44,9.11c-.44,1.39-1.13,2.08-2.07,2.08a1.57,1.57,0,0,1-1.33-.67,1.77,1.77,0,0,1-.45-1.16q0-1.25,2.65-8.29A57.45,57.45,0,0,1,406,79,22.85,22.85,0,0,1,408.2,76,2.13,2.13,0,0,1,409.73,75.25Zm7.88-15.37a1.66,1.66,0,0,1,1.86,1.9,6.23,6.23,0,0,1-1.82,3.86c-1.16,1.35-2.28,2-3.36,2a1.63,1.63,0,0,1-1.28-.58,1.87,1.87,0,0,1-.5-1.33q0-2,2.2-4.23A4.41,4.41,0,0,1,417.61,59.88Z"/><path class="cls-3" d="M417.73,85.86c.36-.33.7-.67,1-1q8.66-8.44,11.6-8.45c1.08,0,1.62.59,1.62,1.78a4.94,4.94,0,0,1-1.45,2.94q-7.92,9.24-7.92,16.29a8.4,8.4,0,0,0,1.24,4.35,3.19,3.19,0,0,1,.58,1.49,1.32,1.32,0,0,1-.49,1,1.73,1.73,0,0,1-1.29.58c-1.13,0-2.08-.72-2.86-2.16a10.15,10.15,0,0,1-1.12-4.93q0-5.59,4.23-12.39-5.64,3.6-10.48,12.76c-.83,1.47-1.72,2.2-2.66,2.2a1.52,1.52,0,0,1-1.16-.5,2,2,0,0,1-.58-1.49q0-2.24,5.1-11.73,2.73-5.13,4.31-7.46c1.05-1.52,1.95-2.28,2.69-2.28a1.48,1.48,0,0,1,1,.5,1.82,1.82,0,0,1,.58,1.33,5.26,5.26,0,0,1-1.2,2.61A44.29,44.29,0,0,0,417.73,85.86Z"/><path class="cls-3" d="M435.13,92.11v.75a2.77,2.77,0,0,0,.46,1.58A3.8,3.8,0,0,0,439,96q5.17,0,12-8c.8-.91,1.48-1.36,2-1.36a1.05,1.05,0,0,1,.83.45,1,1,0,0,1,.25.62c0,1.08-1.32,2.9-4,5.47a29.72,29.72,0,0,1-6.63,4.93,13.87,13.87,0,0,1-6.54,1.91A6,6,0,0,1,432,97.87a6.28,6.28,0,0,1-1.2-4.06q0-7,6.58-13.71c3.57-3.65,6.67-5.47,9.33-5.47a3.12,3.12,0,0,1,1.94.66,2.79,2.79,0,0,1,1.08,2.28,10.74,10.74,0,0,1-2,5.39A21.57,21.57,0,0,1,435.13,92.11Zm.92-3.23a16.75,16.75,0,0,0,4.55-2.23,18.38,18.38,0,0,0,4.6-5.06,3.43,3.43,0,0,0,.63-1.78c0-.55-.27-.83-.79-.83A5.82,5.82,0,0,0,442,80.6,21.13,21.13,0,0,0,436.05,88.88Z"/></g></g></svg>